<svg xmlns="http://www.w3.org/2000/svg" viewBox="138.3 105.08 319.65 215.67">
<defs>
<clipPath id="c0"><path d="M111.88 316.67L472.88 316.67L472.88 100.68L111.88 100.68Z"></path></clipPath>
<clipPath id="c1"><path d="M392.88 100.68L367.52 124L367.52 173.19L456.52 173.19L456.52 157.03L420.43 100.68Z"></path></clipPath>
<clipPath id="c2"><path d="M162.13 218.77L162.13 276.95L226.12 276.95L240.15 264.69L240.15 218.77Z"></path></clipPath>
<clipPath id="c3"><path d="M210.28 173.19L408.28 173.19L408.28 112.77L210.28 112.77Z"></path></clipPath>
<clipPath id="c4"><path d="M167.37 218.15L140.28 232.39L140.28 270.7L163.41 308.41L326.84 310.92L409.02 265.89L409.02 239.46L338.11 239.46L197.92 242.55L199.44 215.14L187.98 214.96Z"></path></clipPath>
</defs>
<path d="M172.41 177.07L172.41 200.81C172.41 204.5 174.58 206.34 178.91 206.34L201.47 206.34L201.47 214.18L175.96 214.18C165.71 214.18 160.58 209.72 160.58 200.81L160.58 177.07Z" fill="#103863" fill-rule="nonzero" clip-path="url(#c0)"></path>
<path d="M245.36 184.76L230.07 184.76C226.36 184.76 223.68 185.33 222.03 186.47C220.39 187.61 219.42 189.32 219.12 191.59L245.36 191.59L245.36 199.2L219.12 199.2C219.24 201.43 220.13 203.19 221.78 204.48C223.42 205.77 226.19 206.42 230.07 206.42L245.36 206.42L245.36 214.18L228.57 214.18C221.44 214.18 216.07 212.63 212.46 209.51C208.84 206.4 207.04 201.77 207.04 195.63C207.04 189.49 208.84 184.86 212.46 181.75C216.07 178.63 221.44 177.07 228.57 177.07L245.36 177.07Z" fill="#103863" fill-rule="nonzero" clip-path="url(#c0)"></path>
<path d="M281.46 189.86C281.46 186.46 279.56 184.76 275.75 184.76L263.69 184.76L263.69 195.06L275.75 195.06C279.56 195.06 281.46 193.33 281.46 189.86M272.61 202.67L263.69 202.67L263.69 214.18L251.83 214.18L251.83 177.07L278.62 177.07C283.81 177.07 287.66 178.26 290.17 180.63C292.68 183 293.94 186.07 293.94 189.83C293.94 193.65 292.7 196.73 290.21 199.1C288.95 200.3 287.35 201.2 285.4 201.79L294.79 214.18L280.9 214.18Z" fill="#103863" fill-rule="evenodd" clip-path="url(#c0)"></path>
<path d="M316.53 214.18C311.49 214.18 307.54 212.97 304.68 210.54C301.81 208.1 300.38 204.2 300.38 198.81L300.38 177.07L312.24 177.07L312.24 198.89C312.24 201.48 312.9 203.34 314.23 204.48C315.56 205.62 317.29 206.19 319.43 206.19L329.42 206.19L329.42 177.07L341.27 177.07L341.27 214.18Z" fill="#103863" fill-rule="nonzero" clip-path="url(#c0)"></path>
<path d="M391.94 214.18L391.94 191.98C391.94 189.5 391.32 187.72 390.08 186.66C388.84 185.6 386.78 185.07 383.89 185.07L381.44 185.07L381.44 214.18L369.58 214.18L369.58 185.07L359.59 185.07L359.59 214.18L347.74 214.18L347.74 177.07L385.91 177.07C392.16 177.07 396.7 178.29 399.53 180.72C402.35 183.16 403.77 187.06 403.77 192.45L403.77 214.18Z" fill="#103863" fill-rule="nonzero" clip-path="url(#c0)"></path>
<path d="M439.64 198.89L426.36 198.89C423.17 198.89 421.57 200.17 421.57 202.72C421.57 205.29 423.17 206.58 426.36 206.58L439.64 206.58ZM423.18 214.18C418.81 214.18 415.45 213.17 413.09 211.14C410.72 209.12 409.54 206.31 409.54 202.72C409.54 199.15 410.72 196.35 413.09 194.32C415.45 192.3 418.81 191.28 423.18 191.28L439.64 191.28L439.64 189.94C439.64 188.06 439.19 186.74 438.3 185.98C437.42 185.22 435.88 184.84 433.71 184.84L412.36 184.84L412.36 177.07L434.15 177.07C440.28 177.07 444.7 178.24 447.41 180.57C450.13 182.9 451.49 186.7 451.49 191.98L451.49 214.18Z" fill="#103863" fill-rule="evenodd" clip-path="url(#c0)"></path>
<path d="M268.05 220.46L280.04 220.46L280.04 224.29L272.65 224.29L272.65 226.94L278.95 226.94L278.95 230.76L272.65 230.76L272.65 233.22L280.15 233.22L280.15 237.06L268.05 237.06Z" fill="#103863" fill-rule="nonzero" clip-path="url(#c0)"></path>
<path d="M300.16 237.06L296.17 237.06L289.22 228.12L289.22 237.06L284.61 237.06L284.61 220.46L288.65 220.46L295.58 229.35L295.58 220.46L300.16 220.46Z" fill="#103863" fill-rule="nonzero" clip-path="url(#c0)"></path>
<path d="M308.58 224.29L304.2 224.29L304.2 220.46L317.53 220.46L317.53 224.29L313.16 224.29L313.16 237.06L308.58 237.06Z" fill="#103863" fill-rule="nonzero" clip-path="url(#c0)"></path>
<path d="M321.57 220.46L333.56 220.46L333.56 224.29L326.17 224.29L326.17 226.94L332.47 226.94L332.47 230.76L326.17 230.76L326.17 233.22L333.67 233.22L333.67 237.06L321.57 237.06Z" fill="#103863" fill-rule="nonzero" clip-path="url(#c0)"></path>
<path d="M345.31 228.08C345.56 228.08 345.79 228.04 346.01 227.95C346.23 227.86 346.42 227.73 346.58 227.57C346.74 227.41 346.87 227.21 346.96 226.98C347.06 226.75 347.11 226.49 347.11 226.21C347.11 225.94 347.06 225.68 346.96 225.45C346.87 225.21 346.74 225.01 346.58 224.84C346.42 224.67 346.23 224.53 346.01 224.44C345.8 224.34 345.57 224.29 345.32 224.29L342.74 224.29L342.74 228.08ZM344.27 231.92L342.74 231.92L342.74 237.06L338.13 237.06L338.13 220.46L345.52 220.46C346.42 220.46 347.25 220.6 348.01 220.88C348.77 221.16 349.42 221.55 349.97 222.06C350.52 222.56 350.94 223.16 351.25 223.87C351.55 224.57 351.71 225.35 351.71 226.21C351.71 226.78 351.64 227.32 351.5 227.83C351.36 228.33 351.17 228.8 350.91 229.22C350.66 229.64 350.35 230.02 349.99 230.36C349.63 230.69 349.23 230.97 348.78 231.2L352.12 237.06L346.86 237.06Z" fill="#103863" fill-rule="evenodd" clip-path="url(#c0)"></path>
<path d="M363.33 228.38C363.57 228.38 363.8 228.32 364.02 228.22C364.23 228.11 364.42 227.97 364.59 227.79C364.76 227.6 364.89 227.39 364.98 227.15C365.07 226.9 365.12 226.64 365.12 226.35C365.12 226.07 365.07 225.81 364.98 225.56C364.89 225.32 364.76 225.1 364.6 224.91C364.43 224.72 364.24 224.57 364.03 224.46C363.81 224.35 363.58 224.29 363.34 224.29L360.8 224.29L360.8 228.38ZM360.8 232.21L360.8 237.06L356.2 237.06L356.2 220.46L363.53 220.46C364.44 220.46 365.27 220.6 366.02 220.9C366.78 221.19 367.43 221.6 367.98 222.12C368.53 222.65 368.96 223.27 369.26 223.99C369.57 224.71 369.72 225.5 369.72 226.35C369.72 227.22 369.57 228.02 369.26 228.73C368.96 229.45 368.54 230.06 368 230.58C367.45 231.1 366.81 231.5 366.05 231.78C365.3 232.07 364.48 232.21 363.59 232.21Z" fill="#103863" fill-rule="evenodd" clip-path="url(#c0)"></path>
<path d="M381.28 228.08C381.52 228.08 381.76 228.04 381.98 227.95C382.2 227.86 382.39 227.73 382.55 227.57C382.71 227.41 382.84 227.21 382.93 226.98C383.03 226.75 383.07 226.49 383.07 226.21C383.07 225.94 383.03 225.68 382.93 225.45C382.84 225.21 382.71 225.01 382.55 224.84C382.39 224.67 382.2 224.53 381.98 224.44C381.77 224.34 381.54 224.29 381.29 224.29L378.7 224.29L378.7 228.08ZM380.24 231.92L378.7 231.92L378.7 237.06L374.1 237.06L374.1 220.46L381.49 220.46C382.39 220.46 383.22 220.6 383.98 220.88C384.73 221.16 385.39 221.55 385.94 222.06C386.49 222.56 386.91 223.16 387.22 223.87C387.52 224.57 387.68 225.35 387.68 226.21C387.68 226.78 387.61 227.32 387.47 227.83C387.33 228.33 387.13 228.8 386.88 229.22C386.63 229.64 386.32 230.02 385.96 230.36C385.6 230.69 385.19 230.97 384.75 231.2L388.09 237.06L382.83 237.06Z" fill="#103863" fill-rule="evenodd" clip-path="url(#c0)"></path>
<path d="M392.17 220.46L396.77 220.46L396.77 237.06L392.17 237.06Z" fill="#103863" fill-rule="nonzero" clip-path="url(#c0)"></path>
<path d="M405.71 231.77C405.71 232.38 405.94 232.85 406.4 233.17C406.85 233.49 407.56 233.65 408.51 233.65C408.98 233.65 409.37 233.62 409.69 233.55C410 233.49 410.25 233.4 410.44 233.27C410.62 233.15 410.76 233 410.83 232.83C410.91 232.66 410.95 232.48 410.95 232.27C410.95 231.92 410.87 231.65 410.71 231.45C410.54 231.25 410.3 231.08 409.98 230.94C409.66 230.79 409.26 230.66 408.79 230.53C408.32 230.41 407.78 230.25 407.17 230.05C406.89 229.97 406.56 229.88 406.18 229.77C405.8 229.66 405.42 229.53 405.02 229.38C404.62 229.22 404.23 229.04 403.84 228.82C403.45 228.61 403.11 228.35 402.8 228.04C402.49 227.74 402.24 227.38 402.05 226.96C401.86 226.55 401.77 226.07 401.77 225.52C401.77 223.74 402.35 222.38 403.51 221.44C404.67 220.5 406.45 220.03 408.84 220.03C409.85 220.03 410.74 220.16 411.52 220.41C412.31 220.66 412.96 221.03 413.48 221.5C414.01 221.97 414.41 222.54 414.68 223.21C414.95 223.88 415.09 224.63 415.09 225.47L410.47 225.47C410.47 225.29 410.45 225.1 410.39 224.91C410.34 224.72 410.24 224.56 410.08 224.41C409.93 224.25 409.72 224.13 409.45 224.04C409.18 223.95 408.83 223.9 408.41 223.9C408 223.9 407.66 223.93 407.39 224C407.13 224.06 406.92 224.15 406.77 224.26C406.62 224.37 406.51 224.49 406.46 224.63C406.4 224.77 406.37 224.92 406.37 225.07C406.37 225.3 406.45 225.5 406.62 225.67C406.78 225.84 407 225.99 407.28 226.12C407.56 226.25 407.89 226.37 408.27 226.47C408.65 226.58 409.05 226.67 409.48 226.76C410.42 227 411.27 227.25 412.02 227.53C412.78 227.8 413.43 228.14 413.96 228.56C414.49 228.97 414.9 229.48 415.19 230.08C415.47 230.67 415.61 231.41 415.61 232.29C415.61 233.14 415.43 233.9 415.05 234.55C414.68 235.2 414.16 235.74 413.51 236.17C412.86 236.61 412.1 236.94 411.22 237.16C410.35 237.38 409.41 237.5 408.41 237.5C407.5 237.5 406.69 237.42 405.97 237.26C405.25 237.11 404.63 236.9 404.09 236.62C403.55 236.35 403.09 236.03 402.72 235.67C402.34 235.3 402.03 234.91 401.79 234.48C401.56 234.06 401.39 233.62 401.28 233.16C401.18 232.7 401.12 232.24 401.12 231.77Z" fill="#103863" fill-rule="nonzero" clip-path="url(#c0)"></path>
<path d="M420.15 220.46L432.14 220.46L432.14 224.29L424.75 224.29L424.75 226.94L431.05 226.94L431.05 230.76L424.75 230.76L424.75 233.22L432.25 233.22L432.25 237.06L420.15 237.06Z" fill="#103863" fill-rule="nonzero" clip-path="url(#c0)"></path>
<path d="M440.57 231.77C440.57 232.38 440.8 232.85 441.26 233.17C441.71 233.49 442.42 233.65 443.37 233.65C443.84 233.65 444.23 233.62 444.55 233.55C444.86 233.49 445.11 233.4 445.3 233.27C445.48 233.15 445.62 233 445.69 232.83C445.77 232.66 445.81 232.48 445.81 232.27C445.81 231.92 445.73 231.65 445.56 231.45C445.4 231.25 445.16 231.08 444.84 230.94C444.52 230.79 444.12 230.66 443.65 230.53C443.18 230.41 442.64 230.25 442.02 230.05C441.75 229.97 441.42 229.88 441.04 229.77C440.66 229.66 440.27 229.53 439.88 229.38C439.48 229.22 439.08 229.04 438.7 228.82C438.31 228.61 437.96 228.35 437.65 228.04C437.34 227.74 437.1 227.38 436.91 226.96C436.72 226.55 436.63 226.07 436.63 225.52C436.63 223.74 437.21 222.38 438.37 221.44C439.53 220.5 441.3 220.03 443.7 220.03C444.71 220.03 445.6 220.16 446.38 220.41C447.16 220.66 447.82 221.03 448.34 221.5C448.87 221.97 449.26 222.54 449.54 223.21C449.81 223.88 449.95 224.63 449.95 225.47L445.33 225.47C445.33 225.29 445.31 225.1 445.25 224.91C445.2 224.72 445.1 224.56 444.94 224.41C444.79 224.25 444.58 224.13 444.31 224.04C444.04 223.95 443.69 223.9 443.27 223.9C442.85 223.9 442.51 223.93 442.25 224C441.99 224.06 441.78 224.15 441.63 224.26C441.48 224.37 441.37 224.49 441.32 224.63C441.26 224.77 441.23 224.92 441.23 225.07C441.23 225.3 441.31 225.5 441.47 225.67C441.64 225.84 441.86 225.99 442.14 226.12C442.42 226.25 442.75 226.37 443.13 226.47C443.51 226.58 443.91 226.67 444.34 226.76C445.28 227 446.13 227.25 446.88 227.53C447.64 227.8 448.28 228.14 448.82 228.56C449.35 228.97 449.76 229.48 450.05 230.08C450.33 230.67 450.47 231.41 450.47 232.29C450.47 233.14 450.28 233.9 449.91 234.55C449.54 235.2 449.02 235.74 448.37 236.17C447.72 236.61 446.96 236.94 446.08 237.16C445.21 237.38 444.27 237.5 443.27 237.5C442.36 237.5 441.54 237.42 440.83 237.26C440.11 237.11 439.49 236.9 438.95 236.62C438.41 236.35 437.95 236.03 437.58 235.67C437.2 235.3 436.89 234.91 436.65 234.48C436.42 234.06 436.25 233.62 436.14 233.16C436.04 232.7 435.98 232.24 435.98 231.77Z" fill="#103863" fill-rule="nonzero" clip-path="url(#c0)"></path>
<path d="M265.75 146.99C198.47 180.91 155.69 232.49 170.2 262.21C184.72 291.92 251.03 288.52 318.32 254.6C385.61 220.69 428.39 169.1 413.87 139.39C399.35 109.67 333.04 113.07 265.75 146.99M439.15 142.18C455.95 176.58 406.44 236.29 328.55 275.55C250.67 314.81 173.91 318.75 157.1 284.35C140.3 249.95 189.82 190.24 267.7 150.99C345.59 111.73 422.35 107.79 439.15 142.18" fill="#1d7dc4" fill-rule="evenodd" clip-path="url(#c1)"></path>
<path d="M316.5 252.09C370.03 227.49 403.91 189.78 392.16 167.87C380.42 145.95 327.51 148.13 273.98 172.73C220.45 197.33 186.57 235.04 198.31 256.96C210.05 278.87 262.97 276.69 316.5 252.09M178.11 254.78C164.52 229.41 203.74 185.76 265.7 157.29C327.66 128.81 388.91 126.29 402.5 151.65C416.09 177.02 376.88 220.67 314.92 249.15C252.95 277.62 191.71 280.14 178.11 254.78" fill="#103863" fill-rule="evenodd" clip-path="url(#c2)"></path>
<path d="M321.75 250.75C375.28 224.19 409.16 183.47 397.42 159.81C385.68 136.15 332.77 138.5 279.23 165.06C225.7 191.62 191.82 232.34 203.57 256C215.31 279.66 268.22 277.31 321.75 250.75M177.37 253.65C163.78 226.26 202.99 179.13 264.96 148.38C326.92 117.64 388.17 114.91 401.76 142.3C415.35 169.69 376.14 216.82 314.18 247.57C252.21 278.32 190.96 281.04 177.37 253.65" fill="#103863" fill-rule="evenodd" clip-path="url(#c3)"></path>
<path d="M265.75 146.29C198.47 180.2 155.69 231.79 170.2 261.5C184.72 291.22 251.03 287.81 318.32 253.9C385.61 219.98 428.39 168.4 413.87 138.68C399.35 108.96 333.04 112.37 265.75 146.29M439.15 141.48C455.95 175.87 406.44 235.58 328.55 274.84C250.67 314.1 173.91 318.04 157.1 283.64C140.3 249.25 189.82 189.54 267.7 150.28C345.59 111.02 422.35 107.08 439.15 141.48" fill="#1d7dc4" fill-rule="evenodd" clip-path="url(#c4)"></path>
</svg>